<?xml version="1.0" standalone="no"?>
<!DOCTYPE svg PUBLIC "-//W3C//DTD SVG 20010904//EN"
 "http://www.w3.org/TR/2001/REC-SVG-20010904/DTD/svg10.dtd">
<svg version="1.0" xmlns="http://www.w3.org/2000/svg"
 width="300.000000pt" height="300.000000pt" viewBox="0 0 300.000000 300.000000"
 preserveAspectRatio="xMidYMid meet">
<metadata>
Created by potrace 1.10, written by Peter Selinger 2001-2011
</metadata>
<g transform="translate(0.000000,300.000000) scale(0.100000,-0.100000)"
fill="#000000" stroke="none">
<path d="M1131 2024 c-39 -43 -71 -82 -71 -86 0 -5 -21 -18 -46 -28 -115 -50
-282 -183 -389 -310 -43 -52 -76 -80 -118 -101 -66 -34 -132 -90 -153 -130 -8
-16 -14 -46 -14 -67 0 -114 161 -142 353 -62 l73 30 274 -54 c151 -30 322 -61
380 -70 159 -25 150 -22 150 -59 0 -60 58 -97 152 -97 73 0 143 17 223 54 32
14 66 26 77 26 10 0 85 -14 166 -30 80 -17 152 -28 159 -26 48 19 -34 264
-138 416 l-45 65 19 60 c25 82 45 291 29 307 -10 10 -35 5 -115 -21 -56 -19
-117 -41 -136 -51 -33 -16 -34 -16 -95 17 -84 44 -283 109 -381 124 -130 19
-129 19 -187 94 -31 40 -63 71 -75 73 -15 2 -40 -18 -92 -74z m144 -59 l50
-75 46 0 c110 0 341 -65 483 -137 38 -19 76 -32 85 -30 9 3 48 19 87 35 38 16
84 33 102 37 l32 7 0 -44 c-1 -59 -24 -185 -43 -230 l-16 -37 56 -82 c64 -94
115 -199 136 -281 8 -32 14 -58 13 -58 -2 0 -69 13 -151 30 l-147 30 -77 -34
c-119 -52 -222 -69 -275 -44 -56 25 -37 79 59 167 56 50 67 74 41 84 -14 5
-86 -51 -141 -110 l-20 -21 -125 19 c-69 11 -255 46 -415 78 l-290 58 -54 -24
c-127 -55 -264 -70 -301 -33 -11 11 -20 27 -20 35 0 49 80 125 167 160 28 11
55 34 83 70 99 128 278 275 397 326 26 11 54 28 61 37 35 47 116 142 121 142
3 0 28 -34 56 -75z"/>
<path d="M982 1634 c-18 -12 -22 -24 -20 -52 2 -30 8 -38 31 -46 60 -21 107
37 73 90 -19 28 -51 31 -84 8z"/>
<path d="M1120 1525 c0 -50 29 -75 84 -75 25 0 47 4 51 9 3 5 16 -1 30 -15 34
-34 90 -33 127 3 15 15 28 30 28 34 0 16 -34 18 -60 3 -29 -18 -58 -14 -64 8
-3 7 -7 25 -10 41 -8 36 -29 34 -56 -4 -28 -39 -69 -37 -88 4 -19 39 -42 35
-42 -8z"/>
<path d="M1556 1507 c-24 -18 -24 -67 0 -84 27 -20 64 -12 87 19 19 25 19 28
3 52 -19 29 -60 35 -90 13z"/>
</g>
</svg>
